<svg width="110" height="18" viewBox="0 0 110 18" fill="none" xmlns="http://www.w3.org/2000/svg">
<path d="M6.228 10.804C6.228 11.204 6.132 11.576 5.94 11.92C5.748 12.264 5.456 12.544 5.064 12.76C4.672 12.976 4.188 13.084 3.612 13.084C3.052 13.084 2.552 12.984 2.112 12.784C1.68 12.576 1.332 12.296 1.068 11.944C0.812 11.584 0.664 11.176 0.624 10.72H1.788C1.812 10.96 1.892 11.196 2.028 11.428C2.172 11.652 2.372 11.84 2.628 11.992C2.892 12.136 3.208 12.208 3.576 12.208C4.056 12.208 4.424 12.08 4.68 11.824C4.936 11.568 5.064 11.24 5.064 10.84C5.064 10.496 4.972 10.216 4.788 10C4.612 9.784 4.392 9.616 4.128 9.496C3.864 9.368 3.504 9.232 3.048 9.088C2.512 8.912 2.08 8.748 1.752 8.596C1.432 8.436 1.156 8.2 0.924 7.888C0.7 7.576 0.588 7.164 0.588 6.652C0.588 6.212 0.692 5.824 0.9 5.488C1.116 5.152 1.42 4.892 1.812 4.708C2.212 4.524 2.68 4.432 3.216 4.432C4.048 4.432 4.708 4.636 5.196 5.044C5.684 5.444 5.968 5.956 6.048 6.58H4.872C4.808 6.244 4.636 5.948 4.356 5.692C4.076 5.436 3.696 5.308 3.216 5.308C2.776 5.308 2.424 5.424 2.16 5.656C1.896 5.88 1.764 6.2 1.764 6.616C1.764 6.944 1.848 7.212 2.016 7.42C2.192 7.62 2.408 7.78 2.664 7.9C2.92 8.012 3.272 8.14 3.72 8.284C4.264 8.46 4.7 8.628 5.028 8.788C5.364 8.948 5.648 9.192 5.88 9.52C6.112 9.84 6.228 10.268 6.228 10.804ZM11.2843 6.304C12.0523 6.304 12.6723 6.552 13.1443 7.048C13.6163 7.536 13.8523 8.244 13.8523 9.172V13H12.7603V9.268C12.7603 8.612 12.5923 8.108 12.2563 7.756C11.9203 7.404 11.4643 7.228 10.8883 7.228C10.2883 7.228 9.80831 7.424 9.44831 7.816C9.08831 8.2 8.90831 8.764 8.90831 9.508V13H7.81631V4.12H8.90831V7.972C9.07631 7.436 9.37231 7.024 9.79631 6.736C10.2283 6.448 10.7243 6.304 11.2843 6.304ZM18.6353 6.328C19.2673 6.328 19.8313 6.464 20.3273 6.736C20.8313 7.008 21.2233 7.4 21.5033 7.912C21.7912 8.424 21.9352 9.024 21.9352 9.712C21.9352 10.4 21.7912 11 21.5033 11.512C21.2233 12.016 20.8313 12.404 20.3273 12.676C19.8313 12.948 19.2673 13.084 18.6353 13.084C18.0033 13.084 17.4352 12.948 16.9312 12.676C16.4352 12.404 16.0432 12.016 15.7552 11.512C15.4672 11 15.3232 10.4 15.3232 9.712C15.3232 9.024 15.4672 8.424 15.7552 7.912C16.0432 7.4 16.4352 7.008 16.9312 6.736C17.4352 6.464 18.0033 6.328 18.6353 6.328ZM18.6353 7.288C18.2432 7.288 17.8792 7.376 17.5432 7.552C17.2152 7.728 16.9472 8 16.7392 8.368C16.5392 8.728 16.4392 9.176 16.4392 9.712C16.4392 10.24 16.5392 10.688 16.7392 11.056C16.9472 11.416 17.2152 11.684 17.5432 11.86C17.8792 12.036 18.2432 12.124 18.6353 12.124C19.0273 12.124 19.3873 12.036 19.7153 11.86C20.0513 11.684 20.3193 11.416 20.5193 11.056C20.7272 10.688 20.8312 10.24 20.8312 9.712C20.8312 9.176 20.7272 8.728 20.5193 8.368C20.3193 8 20.0513 7.728 19.7153 7.552C19.3873 7.376 19.0273 7.288 18.6353 7.288ZM32.5262 6.412L30.6302 13H29.4542L27.6422 7.636L25.8182 13H24.6302L22.7582 6.412H23.8622L25.2662 11.956L27.0902 6.412H28.2302L30.0662 11.944L31.4822 6.412H32.5262ZM34.6126 6.532V7.816H33.2926V6.532H34.6126ZM34.6126 11.716V13H33.2926V11.716H34.6126Z" fill="#6A707E"/>
<path d="M44.3503 4.54V5.428H41.9623V13H40.8703V5.428H38.4823V4.54H44.3503ZM49.0238 6.304C49.7918 6.304 50.4118 6.552 50.8838 7.048C51.3558 7.536 51.5918 8.244 51.5918 9.172V13H50.4998V9.268C50.4998 8.612 50.3318 8.108 49.9958 7.756C49.6598 7.404 49.2038 7.228 48.6278 7.228C48.0278 7.228 47.5478 7.424 47.1878 7.816C46.8278 8.2 46.6478 8.764 46.6478 9.508V13H45.5558V4.12H46.6478V7.972C46.8158 7.436 47.1118 7.024 47.5358 6.736C47.9678 6.448 48.4638 6.304 49.0238 6.304ZM53.1948 4.48C53.1948 4.28 53.2628 4.12 53.3988 4C53.5348 3.872 53.7148 3.808 53.9388 3.808C54.1628 3.808 54.3428 3.872 54.4788 4C54.6148 4.12 54.6828 4.28 54.6828 4.48C54.6828 4.68 54.6148 4.844 54.4788 4.972C54.3428 5.092 54.1628 5.152 53.9388 5.152C53.7148 5.152 53.5348 5.092 53.3988 4.972C53.2628 4.844 53.1948 4.68 53.1948 4.48ZM54.4788 6.412V13H53.3868V6.412H54.4788ZM58.4184 6.328C59.1624 6.328 59.7584 6.524 60.2064 6.916C60.6624 7.3 60.9384 7.82 61.0344 8.476H59.9904C59.9424 8.084 59.7784 7.764 59.4984 7.516C59.2264 7.26 58.8584 7.132 58.3944 7.132C58.0024 7.132 57.6944 7.228 57.4704 7.42C57.2544 7.604 57.1464 7.856 57.1464 8.176C57.1464 8.416 57.2184 8.612 57.3624 8.764C57.5144 8.908 57.6984 9.02 57.9144 9.1C58.1384 9.172 58.4424 9.252 58.8264 9.34C59.3144 9.452 59.7064 9.568 60.0024 9.688C60.3064 9.8 60.5624 9.984 60.7704 10.24C60.9864 10.496 61.0944 10.84 61.0944 11.272C61.0944 11.808 60.8904 12.244 60.4824 12.58C60.0824 12.916 59.5464 13.084 58.8744 13.084C58.0904 13.084 57.4504 12.896 56.9544 12.52C56.4584 12.144 56.1664 11.62 56.0784 10.948H57.1344C57.1744 11.348 57.3464 11.672 57.6504 11.92C57.9624 12.168 58.3704 12.292 58.8744 12.292C59.2504 12.292 59.5424 12.196 59.7504 12.004C59.9664 11.812 60.0744 11.56 60.0744 11.248C60.0744 10.992 59.9984 10.788 59.8464 10.636C59.6944 10.484 59.5064 10.368 59.2824 10.288C59.0584 10.208 58.7504 10.124 58.3584 10.036C57.8704 9.924 57.4784 9.812 57.1824 9.7C56.8944 9.588 56.6464 9.412 56.4384 9.172C56.2384 8.924 56.1384 8.592 56.1384 8.176C56.1384 7.624 56.3424 7.18 56.7504 6.844C57.1584 6.5 57.7144 6.328 58.4184 6.328ZM74.8065 6.412L72.9105 13H71.7345L69.9225 7.636L68.0985 13H66.9105L65.0385 6.412H66.1425L67.5465 11.956L69.3705 6.412H70.5105L72.3465 11.944L73.7625 6.412H74.8065ZM82.0049 9.34C82.0049 9.572 81.9889 9.772 81.9569 9.94H76.6889C76.7129 10.692 76.9249 11.256 77.3249 11.632C77.7329 12.008 78.2289 12.196 78.8129 12.196C79.3409 12.196 79.7809 12.064 80.1329 11.8C80.4929 11.528 80.7129 11.168 80.7929 10.72H81.9569C81.8769 11.176 81.6969 11.584 81.4169 11.944C81.1449 12.304 80.7889 12.584 80.3489 12.784C79.9089 12.984 79.4129 13.084 78.8609 13.084C78.2289 13.084 77.6689 12.948 77.1809 12.676C76.6929 12.404 76.3089 12.016 76.0289 11.512C75.7569 11 75.6209 10.4 75.6209 9.712C75.6209 9.024 75.7569 8.424 76.0289 7.912C76.3089 7.4 76.6929 7.008 77.1809 6.736C77.6689 6.464 78.2289 6.328 78.8609 6.328C79.5009 6.328 80.0569 6.464 80.5289 6.736C81.0089 7.008 81.3729 7.372 81.6209 7.828C81.8769 8.284 82.0049 8.788 82.0049 9.34ZM80.9009 9.412C80.9249 8.924 80.8449 8.516 80.6609 8.188C80.4769 7.86 80.2249 7.616 79.9049 7.456C79.5849 7.296 79.2369 7.216 78.8609 7.216C78.2609 7.216 77.7569 7.404 77.3489 7.78C76.9409 8.148 76.7209 8.692 76.6889 9.412H80.9009ZM89.6132 9.34C89.6132 9.572 89.5972 9.772 89.5652 9.94H84.2972C84.3212 10.692 84.5332 11.256 84.9332 11.632C85.3412 12.008 85.8372 12.196 86.4212 12.196C86.9492 12.196 87.3892 12.064 87.7412 11.8C88.1012 11.528 88.3212 11.168 88.4012 10.72H89.5652C89.4852 11.176 89.3052 11.584 89.0252 11.944C88.7532 12.304 88.3972 12.584 87.9572 12.784C87.5172 12.984 87.0212 13.084 86.4692 13.084C85.8372 13.084 85.2772 12.948 84.7892 12.676C84.3012 12.404 83.9172 12.016 83.6372 11.512C83.3652 11 83.2292 10.4 83.2292 9.712C83.2292 9.024 83.3652 8.424 83.6372 7.912C83.9172 7.4 84.3012 7.008 84.7892 6.736C85.2772 6.464 85.8372 6.328 86.4692 6.328C87.1092 6.328 87.6652 6.464 88.1372 6.736C88.6172 7.008 88.9812 7.372 89.2292 7.828C89.4852 8.284 89.6132 8.788 89.6132 9.34ZM88.5092 9.412C88.5332 8.924 88.4532 8.516 88.2692 8.188C88.0852 7.86 87.8332 7.616 87.5132 7.456C87.1932 7.296 86.8452 7.216 86.4692 7.216C85.8692 7.216 85.3652 7.404 84.9572 7.78C84.5492 8.148 84.3292 8.692 84.2972 9.412H88.5092ZM94.7735 13L92.2535 10.036V13H91.1615V4.12H92.2535V9.28L94.7375 6.412H96.0695L93.1175 9.688L96.1415 13H94.7735Z" fill="#109CF1"/>
<path d="M106.5 11L103.469 8L109.531 8L106.5 11Z" fill="#AEAEAE"/>
</svg>
